HIERARCHY
ROOT Hips
{
	OFFSET 0.000000 0.000000 0.000000
	CHANNELS 6 Xposition Yposition Zposition Zrotation Yrotation Xrotation 
	JOINT LeftUpLeg_virtual
	{
		OFFSET 0.000000 0.000000 0.000000
		CHANNELS 3 Zrotation Yrotation Xrotation
		JOINT LeftUpLeg
		{
			OFFSET 10.205400 -3.823500 0.155100
			CHANNELS 3 Zrotation Yrotation Xrotation
			JOINT LeftLeg
			{
				OFFSET 0.708757 -12.982077 0.567790
				CHANNELS 3 Zrotation Yrotation Xrotation
				JOINT LeftFoot
				{
					OFFSET -0.708756 -10.717838 -2.184338
					CHANNELS 3 Zrotation Yrotation Xrotation
					JOINT LeftToeBase
					{
						OFFSET 0.108149 -7.191104 7.560241
						CHANNELS 3 Zrotation Yrotation Xrotation
						End Site
						{
							OFFSET 0.000000 0.000000 0.000000
						}
					}
				}
			}
		}
	}
	JOINT RightUpLeg_virtual
	{
		OFFSET 0.000000 0.000000 0.000000
		CHANNELS 3 Zrotation Yrotation Xrotation
		JOINT RightUpLeg
		{
			OFFSET -10.205400 -3.823500 0.005500
			CHANNELS 3 Zrotation Yrotation Xrotation
			JOINT RightLeg
			{
				OFFSET -0.708756 -12.982134 0.610632
				CHANNELS 3 Zrotation Yrotation Xrotation
				JOINT RightFoot
				{
					OFFSET 0.708754 -10.717769 -1.945823
					CHANNELS 3 Zrotation Yrotation Xrotation
					JOINT RightToeBase
					{
						OFFSET -0.108140 -7.191069 7.372968
						CHANNELS 3 Zrotation Yrotation Xrotation
						End Site
						{
							OFFSET 0.000000 0.000000 0.000000
						}
					}
				}
			}
		}
	}
	JOINT Spine_virtual
	{
		OFFSET 0.000000 0.000000 0.000000
		CHANNELS 3 Zrotation Yrotation Xrotation
		JOINT Spine
		{
			OFFSET 0.000000 6.876099 0.125700
			CHANNELS 3 Zrotation Yrotation Xrotation
			JOINT Spine1
			{
				OFFSET 0.000000 8.022060 0.146608
				CHANNELS 3 Zrotation Yrotation Xrotation
				JOINT Spine2
				{
					OFFSET 0.000000 9.168068 0.167552
					CHANNELS 3 Zrotation Yrotation Xrotation
					JOINT Neck_virtual
					{
						OFFSET 0.000000 0.000000 0.000000
						CHANNELS 3 Zrotation Yrotation Xrotation
						JOINT Neck
						{
							OFFSET 0.000000 10.314075 0.188496
							CHANNELS 3 Zrotation Yrotation Xrotation
							JOINT Head
							{
								OFFSET 0.000000 7.643700 -2.377400
								CHANNELS 3 Zrotation Yrotation Xrotation
								End Site
								{
									OFFSET 0.000000 0.000000 0.000000
								}
							}
						}
					}
					JOINT LeftShoulder_virtual
					{
						OFFSET 0.000000 0.000000 0.000000
						CHANNELS 3 Zrotation Yrotation Xrotation
						JOINT LeftShoulder
						{
							OFFSET 4.392200 8.824978 0.174984
							CHANNELS 3 Zrotation Yrotation Xrotation
							JOINT LeftArm
							{
								OFFSET 8.771219 -2.981674 -0.026999
								CHANNELS 3 Zrotation Yrotation Xrotation
								JOINT LeftForeArm
								{
									OFFSET 8.512804 0.000000 -0.000000
									CHANNELS 3 Zrotation Yrotation Xrotation
									JOINT LeftHand
									{
										OFFSET 18.484802 0.000000 -0.000000
										CHANNELS 3 Zrotation Yrotation Xrotation
										End Site
										{
											OFFSET 0.000000 0.000000 0.000000
										}
									}
								}
							}
						}
					}
					JOINT RightShoulder_virtual
					{
						OFFSET 0.000000 0.000000 0.000000
						CHANNELS 3 Zrotation Yrotation Xrotation
						JOINT RightShoulder
						{
							OFFSET -4.392200 8.824993 0.141379
							CHANNELS 3 Zrotation Yrotation Xrotation
							JOINT RightArm
							{
								OFFSET -8.771282 -2.981682 -0.094208
								CHANNELS 3 Zrotation Yrotation Xrotation
								JOINT RightForeArm
								{
									OFFSET -8.494598 0.000000 0.000000
									CHANNELS 3 Zrotation Yrotation Xrotation
									JOINT RightHand
									{
										OFFSET -18.483803 0.000000 0.000001
										CHANNELS 3 Zrotation Yrotation Xrotation
										End Site
										{
											OFFSET 0.000000 0.000000 0.000000
										}
									}
								}
							}
						}
					}
				}
			}
		}
	}
}
MOTION
Frames: 11
Frame Time: 0.033333
12.841825 35.024872 -64.516518 178.657313 -88.037457 -178.825636 -0.277136 -4.371066 10.275255 -8.270237 -2.506063 -29.850556 18.376329 9.590771 15.478529 -6.339724 5.066223 14.196584 0.000000 0.000000 0.000000 3.908619 -3.562271 8.450147 -3.726955 13.672456 -26.369262 -7.031369 6.454424 22.753619 14.369516 6.522581 0.273617 0.000000 0.000000 0.000000 1.791367 -0.730847 -3.376571 -0.968210 0.791492 -13.466833 -1.504580 -2.313993 12.056285 0.017990 0.035610 -0.010405 -1.719701 -0.254495 14.034739 2.276786 -2.555867 21.881508 0.000000 0.000000 0.000000 0.125742 0.416383 11.135239 -13.564689 -11.194946 3.148995 -55.576990 22.548063 -8.390414 -3.894256 -32.174064 1.839495 0.000000 0.000000 0.000000 -4.298649 1.550377 10.365124 26.754607 4.613814 7.372387 48.037738 -17.818193 3.104420 -7.168697 25.528238 -4.078200 0.000000 0.000000 0.000000 
12.825309 35.014641 -64.582458 174.957727 -87.800729 -175.216987 -0.284852 -4.405904 10.421252 -8.258511 -2.574311 -29.692359 18.555744 9.641606 15.769558 -6.208537 5.182038 14.177245 0.000000 0.000000 0.000000 3.862364 -3.647988 8.242607 -3.726004 13.510054 -26.660998 -6.739465 6.806015 22.348777 14.598870 6.904302 0.010340 0.000000 0.000000 0.000000 1.667933 -0.693183 -3.343457 -0.993176 0.857828 -13.454335 -1.484844 -2.259398 12.146253 -0.019550 0.097623 -0.059142 -1.671372 -0.333745 14.100013 2.270465 -2.486465 22.031540 0.000000 0.000000 0.000000 0.191946 0.436203 10.997692 -13.559325 -11.211583 3.151350 -55.573735 22.486566 -8.457180 -3.885038 -32.242413 1.825919 0.000000 0.000000 0.000000 -4.264890 1.551813 10.303470 26.780168 4.612633 7.358249 48.150347 -17.800989 3.132275 -7.156061 25.583332 -4.042224 0.000000 0.000000 0.000000 
12.793608 35.012848 -64.662178 175.079988 -87.695565 -175.276137 -0.258001 -4.385104 10.413806 -8.163943 -2.678866 -29.656125 18.736469 9.114732 15.770688 -6.129929 5.239780 14.040192 0.000000 0.000000 0.000000 3.798397 -3.565133 8.222236 -3.510373 13.322565 -26.641392 -6.608837 6.384958 22.363093 14.569147 7.136577 0.116983 0.000000 0.000000 0.000000 1.744899 -0.852219 -3.362128 -1.003718 1.010238 -13.495689 -1.490090 -2.152469 12.068573 0.022704 0.081368 -0.077879 -1.703275 -0.273463 14.075039 2.342970 -2.542829 22.039342 0.000000 0.000000 0.000000 0.184137 0.431941 11.096015 -13.560961 -11.262339 3.126144 -55.535056 22.452942 -8.550241 -3.934913 -32.127052 1.925360 0.000000 0.000000 0.000000 -4.348712 1.525678 10.279226 26.854629 4.584909 7.397523 48.276966 -17.712818 3.077981 -7.196992 25.752675 -4.061480 0.000000 0.000000 0.000000 
12.750052 35.010185 -64.753265 174.774555 -87.718870 -174.925844 -0.269296 -4.540583 10.390164 -7.984868 -2.649907 -29.551046 18.759086 8.834657 15.789191 -6.137895 5.224500 13.880708 0.000000 0.000000 0.000000 3.673616 -3.581234 8.231931 -3.257558 13.219403 -26.547257 -6.472815 6.168448 22.262925 14.380608 7.184651 0.122357 0.000000 0.000000 0.000000 1.701556 -0.744892 -3.420946 -0.962591 0.931318 -13.569495 -1.504043 -2.277780 12.083599 0.011079 0.121186 -0.057978 -1.728655 -0.240508 14.046106 2.476676 -2.521493 22.113333 0.000000 0.000000 0.000000 0.160406 0.447374 10.951825 -13.543675 -11.186365 3.119986 -55.603067 22.405119 -8.596326 -3.907389 -32.059706 1.867993 0.000000 0.000000 0.000000 -4.362508 1.560760 10.256137 27.018487 4.650959 7.454716 48.389851 -17.500017 2.914434 -7.105829 25.862043 -3.853831 0.000000 0.000000 0.000000 
12.702270 35.005783 -64.844048 174.580264 -87.728323 -174.728629 -0.286942 -4.564460 10.395550 -7.815229 -2.641656 -29.428946 18.738192 8.608852 15.852452 -6.180010 5.183724 13.687945 0.000000 0.000000 0.000000 3.621653 -3.570752 8.251698 -3.034034 13.148792 -26.402014 -6.335982 5.996668 22.141199 14.296379 7.188480 0.135628 0.000000 0.000000 0.000000 1.697114 -0.875577 -3.438993 -0.883974 0.956323 -13.576259 -1.476909 -2.112284 12.035448 0.016627 0.094848 -0.037641 -1.701908 -0.288314 14.002727 2.635831 -2.562233 22.191285 0.000000 0.000000 0.000000 0.168958 0.381007 10.954770 -13.597159 -11.192253 3.162607 -55.643738 22.431212 -8.421569 -3.932063 -31.807201 2.011381 0.000000 0.000000 0.000000 -4.363268 1.507522 10.158247 27.105725 4.660299 7.502322 48.512593 -17.296008 2.746945 -7.232795 26.048735 -4.099088 0.000000 0.000000 0.000000 
12.653037 35.001408 -64.934570 173.274400 -87.805545 -173.340188 -0.322476 -4.668678 10.344528 -7.654887 -2.653871 -29.325472 18.730115 8.301753 15.872598 -6.206842 5.180746 13.548545 0.000000 0.000000 0.000000 3.537417 -3.595672 8.252673 -2.836774 13.021601 -26.276747 -6.202301 5.777680 22.010626 14.252640 7.153851 0.144798 0.000000 0.000000 0.000000 1.673948 -0.928701 -3.545171 -0.836139 1.074915 -13.624379 -1.467880 -2.276132 11.996214 -0.067867 0.097325 -0.028803 -1.634163 -0.358624 13.956010 2.869040 -2.590454 22.279910 0.000000 0.000000 0.000000 0.213689 0.440172 10.895627 -13.576189 -11.141352 3.212853 -55.853851 22.536250 -8.376641 -3.935391 -31.525353 2.100398 0.000000 0.000000 0.000000 -4.317276 1.542483 10.169921 27.229627 4.784369 7.596098 48.516872 -17.119330 2.561491 -7.276504 26.223454 -4.098316 0.000000 0.000000 0.000000 
12.598208 34.994762 -65.024002 174.394687 -87.857987 -174.456569 -0.309495 -4.763750 10.340212 -7.493477 -2.549083 -29.200684 18.599809 8.104642 15.917039 -6.281599 5.163707 13.363908 0.000000 0.000000 0.000000 3.504355 -3.619816 8.314754 -2.615178 12.965475 -26.127277 -6.046744 5.643282 21.923227 14.182062 7.100819 0.134220 0.000000 0.000000 0.000000 1.681487 -0.907846 -3.589384 -0.764037 1.199488 -13.644223 -1.449886 -2.248331 11.993448 0.012953 0.099700 -0.050645 -1.615290 -0.306195 13.967267 3.059944 -2.588177 22.371053 0.000000 0.000000 0.000000 0.193257 0.400552 10.892759 -13.578398 -11.117795 3.240517 -56.143059 22.733579 -8.302725 -3.914386 -31.219695 2.184521 0.000000 0.000000 0.000000 -4.342763 1.516254 10.149781 27.302435 4.795052 7.695257 48.512464 -17.050649 2.457091 -7.368284 26.359751 -4.226929 0.000000 0.000000 0.000000 
12.542599 34.990734 -65.106880 173.723143 -87.939772 -173.745068 -0.338760 -4.836853 10.336631 -7.367924 -2.422607 -29.125460 18.459829 7.660766 15.922855 -6.273461 5.251635 13.179379 0.000000 0.000000 0.000000 3.455542 -3.646349 8.382342 -2.445203 12.810085 -26.045357 -5.915072 5.511386 21.885606 14.155050 7.024829 0.115516 0.000000 0.000000 0.000000 1.655602 -0.952563 -3.668338 -0.727480 1.273443 -13.667467 -1.436873 -2.271787 11.992312 -0.010258 0.071492 -0.034056 -1.554225 -0.340464 13.874738 3.166497 -2.697827 22.435182 0.000000 0.000000 0.000000 0.210652 0.395014 10.876030 -13.590053 -11.057725 3.308410 -56.448245 23.047160 -8.334960 -3.922983 -30.840032 2.236310 0.000000 0.000000 0.000000 -4.285579 1.546895 10.055254 27.365534 4.892699 7.801952 48.496788 -17.126204 2.412127 -7.520766 26.569178 -4.110419 0.000000 0.000000 0.000000 
12.488650 34.992767 -65.185715 173.265234 -88.024541 -173.246177 -0.366989 -4.881507 10.364225 -7.277573 -2.299176 -29.056820 18.298084 7.094959 15.837356 -6.227969 5.399813 13.074336 0.000000 0.000000 0.000000 3.443877 -3.650826 8.458612 -2.280485 12.615766 -25.998449 -5.796964 5.455461 21.892129 14.114195 6.951971 0.102499 0.000000 0.000000 0.000000 1.649887 -1.028959 -3.732222 -0.695649 1.374258 -13.702784 -1.397912 -2.250101 11.959946 -0.066931 0.083882 -0.026014 -1.502794 -0.384214 13.862438 3.224883 -2.622465 22.554248 0.000000 0.000000 0.000000 0.229411 0.445503 10.803485 -13.544951 -10.967277 3.340921 -56.860468 23.377919 -8.506329 -3.836315 -30.516124 2.259003 0.000000 0.000000 0.000000 -4.238465 1.541052 10.070526 27.464211 5.020928 7.941669 48.339527 -17.316835 2.551791 -7.708412 26.610972 -4.265107 0.000000 0.000000 0.000000 
12.436234 34.999088 -65.247871 175.013967 -88.051773 -175.011645 -0.324461 -4.853626 10.432541 -7.136164 -2.108016 -28.992562 18.075276 6.942383 15.766858 -6.301368 5.503742 12.957322 0.000000 0.000000 0.000000 3.487305 -3.613403 8.562873 -2.109074 12.456172 -25.933260 -5.708533 5.558878 21.933587 14.003811 6.843916 0.075514 0.000000 0.000000 0.000000 1.628408 -0.952902 -3.727316 -0.642748 1.452821 -13.688590 -1.369000 -2.256188 11.952927 0.011325 0.076834 -0.034813 -1.495786 -0.263647 13.780586 3.126769 -2.613408 22.626501 0.000000 0.000000 0.000000 0.232216 0.462062 10.767873 -13.513004 -10.962463 3.355705 -57.298518 23.665699 -8.590741 -3.791123 -30.070987 2.322690 0.000000 0.000000 0.000000 -4.268216 1.575770 10.020383 27.544030 5.158032 8.076651 48.299912 -17.515373 2.391983 -7.880722 26.505719 -4.233156 0.000000 0.000000 0.000000 
12.389743 35.013382 -65.283295 174.436912 -88.105144 -174.398499 -0.352207 -4.847704 10.470665 -7.000774 -1.988253 -28.969431 17.842747 6.866141 15.708165 -6.373195 5.630507 12.838626 0.000000 0.000000 0.000000 3.514500 -3.569989 8.609153 -1.984574 12.169769 -25.881518 -5.614447 5.748685 21.920664 13.899556 6.774857 0.082078 0.000000 0.000000 0.000000 1.595075 -1.123719 -3.767790 -0.590829 1.585781 -13.633954 -1.354621 -2.152218 11.950659 0.029094 0.306319 -0.035282 -1.452715 -0.276529 13.732320 2.845328 -2.623127 22.701756 0.000000 0.000000 0.000000 0.273511 0.425723 10.739801 -13.470329 -11.014437 3.306977 -57.584184 23.801705 -8.675559 -3.755338 -29.534667 2.310282 0.000000 0.000000 0.000000 -4.223042 1.468711 10.025715 27.568687 5.312350 8.158681 48.297559 -17.805379 1.960227 -8.143134 26.248776 -4.191068 0.000000 0.000000 0.000000 
